<mxfile host="app.diagrams.net" agent="Mozilla/5.0 (Windows NT 10.0; Win64; x64) AppleWebKit/537.36 (KHTML, like Gecko) Chrome/134.0.0.0 Safari/537.36 Edg/134.0.0.0" version="26.1.1">
  <diagram id="prtHgNgQTEPvFCAcTncT" name="Page-1">
    <mxGraphModel dx="1042" dy="573" grid="1" gridSize="10" guides="1" tooltips="1" connect="1" arrows="1" fold="1" page="1" pageScale="1" pageWidth="827" pageHeight="1169" math="0" shadow="0">
      <root>
        <mxCell id="0" />
        <mxCell id="1" parent="0" />
        <mxCell id="QgmlWZk6aCymqvTxZqvN-9" style="edgeStyle=orthogonalEdgeStyle;rounded=0;orthogonalLoop=1;jettySize=auto;html=1;exitX=0.5;exitY=0;exitDx=0;exitDy=0;entryX=0.5;entryY=1;entryDx=0;entryDy=0;" edge="1" parent="1" source="QgmlWZk6aCymqvTxZqvN-3" target="QgmlWZk6aCymqvTxZqvN-6">
          <mxGeometry relative="1" as="geometry" />
        </mxCell>
        <mxCell id="QgmlWZk6aCymqvTxZqvN-10" style="edgeStyle=orthogonalEdgeStyle;rounded=0;orthogonalLoop=1;jettySize=auto;html=1;exitX=0.5;exitY=1;exitDx=0;exitDy=0;entryX=0.5;entryY=0;entryDx=0;entryDy=0;" edge="1" parent="1" source="QgmlWZk6aCymqvTxZqvN-3" target="QgmlWZk6aCymqvTxZqvN-4">
          <mxGeometry relative="1" as="geometry" />
        </mxCell>
        <mxCell id="QgmlWZk6aCymqvTxZqvN-11" style="edgeStyle=orthogonalEdgeStyle;rounded=0;orthogonalLoop=1;jettySize=auto;html=1;exitX=1;exitY=0.5;exitDx=0;exitDy=0;entryX=0;entryY=0.5;entryDx=0;entryDy=0;" edge="1" parent="1" source="QgmlWZk6aCymqvTxZqvN-3" target="QgmlWZk6aCymqvTxZqvN-7">
          <mxGeometry relative="1" as="geometry" />
        </mxCell>
        <mxCell id="QgmlWZk6aCymqvTxZqvN-3" value="Người dùng" style="rounded=0;whiteSpace=wrap;html=1;" vertex="1" parent="1">
          <mxGeometry x="80" y="140" width="140" height="30" as="geometry" />
        </mxCell>
        <mxCell id="QgmlWZk6aCymqvTxZqvN-4" value="Lịch sử truy cập" style="rounded=0;whiteSpace=wrap;html=1;" vertex="1" parent="1">
          <mxGeometry x="80" y="210" width="140" height="30" as="geometry" />
        </mxCell>
        <mxCell id="QgmlWZk6aCymqvTxZqvN-14" style="edgeStyle=orthogonalEdgeStyle;rounded=0;orthogonalLoop=1;jettySize=auto;html=1;exitX=0.5;exitY=0;exitDx=0;exitDy=0;" edge="1" parent="1" source="QgmlWZk6aCymqvTxZqvN-5">
          <mxGeometry relative="1" as="geometry">
            <mxPoint x="410" y="170" as="targetPoint" />
          </mxGeometry>
        </mxCell>
        <mxCell id="QgmlWZk6aCymqvTxZqvN-5" value="Phân quyền nhóm người dùng" style="rounded=0;whiteSpace=wrap;html=1;fontSize=10;" vertex="1" parent="1">
          <mxGeometry x="340" y="210" width="140" height="40" as="geometry" />
        </mxCell>
        <mxCell id="QgmlWZk6aCymqvTxZqvN-6" value="Lịch sử tác động" style="rounded=0;whiteSpace=wrap;html=1;" vertex="1" parent="1">
          <mxGeometry x="80" y="70" width="140" height="30" as="geometry" />
        </mxCell>
        <mxCell id="QgmlWZk6aCymqvTxZqvN-12" style="edgeStyle=orthogonalEdgeStyle;rounded=0;orthogonalLoop=1;jettySize=auto;html=1;exitX=0;exitY=0.5;exitDx=0;exitDy=0;" edge="1" parent="1" source="QgmlWZk6aCymqvTxZqvN-7">
          <mxGeometry relative="1" as="geometry">
            <mxPoint x="220" y="155" as="targetPoint" />
          </mxGeometry>
        </mxCell>
        <mxCell id="QgmlWZk6aCymqvTxZqvN-13" style="edgeStyle=orthogonalEdgeStyle;rounded=0;orthogonalLoop=1;jettySize=auto;html=1;exitX=0.5;exitY=1;exitDx=0;exitDy=0;entryX=0.5;entryY=0;entryDx=0;entryDy=0;" edge="1" parent="1" source="QgmlWZk6aCymqvTxZqvN-7" target="QgmlWZk6aCymqvTxZqvN-5">
          <mxGeometry relative="1" as="geometry" />
        </mxCell>
        <mxCell id="QgmlWZk6aCymqvTxZqvN-7" value="Nhóm người dùng" style="rounded=0;whiteSpace=wrap;html=1;" vertex="1" parent="1">
          <mxGeometry x="340" y="140" width="140" height="30" as="geometry" />
        </mxCell>
        <mxCell id="QgmlWZk6aCymqvTxZqvN-15" style="edgeStyle=orthogonalEdgeStyle;rounded=0;orthogonalLoop=1;jettySize=auto;html=1;exitX=0.5;exitY=0;exitDx=0;exitDy=0;entryX=0.5;entryY=1;entryDx=0;entryDy=0;" edge="1" parent="1" source="QgmlWZk6aCymqvTxZqvN-18" target="QgmlWZk6aCymqvTxZqvN-22">
          <mxGeometry relative="1" as="geometry" />
        </mxCell>
        <mxCell id="QgmlWZk6aCymqvTxZqvN-16" style="edgeStyle=orthogonalEdgeStyle;rounded=0;orthogonalLoop=1;jettySize=auto;html=1;exitX=0.5;exitY=1;exitDx=0;exitDy=0;entryX=0.5;entryY=0;entryDx=0;entryDy=0;" edge="1" parent="1" source="QgmlWZk6aCymqvTxZqvN-18" target="QgmlWZk6aCymqvTxZqvN-19">
          <mxGeometry relative="1" as="geometry" />
        </mxCell>
        <mxCell id="QgmlWZk6aCymqvTxZqvN-17" style="edgeStyle=orthogonalEdgeStyle;rounded=0;orthogonalLoop=1;jettySize=auto;html=1;exitX=1;exitY=0.5;exitDx=0;exitDy=0;entryX=0;entryY=0.5;entryDx=0;entryDy=0;" edge="1" parent="1" source="QgmlWZk6aCymqvTxZqvN-18" target="QgmlWZk6aCymqvTxZqvN-25">
          <mxGeometry relative="1" as="geometry" />
        </mxCell>
        <mxCell id="QgmlWZk6aCymqvTxZqvN-37" style="edgeStyle=orthogonalEdgeStyle;rounded=0;orthogonalLoop=1;jettySize=auto;html=1;exitX=0;exitY=0.5;exitDx=0;exitDy=0;entryX=1;entryY=0.5;entryDx=0;entryDy=0;" edge="1" parent="1" source="QgmlWZk6aCymqvTxZqvN-18" target="QgmlWZk6aCymqvTxZqvN-34">
          <mxGeometry relative="1" as="geometry" />
        </mxCell>
        <mxCell id="QgmlWZk6aCymqvTxZqvN-18" value="Thuốc" style="rounded=0;whiteSpace=wrap;html=1;" vertex="1" parent="1">
          <mxGeometry x="280" y="380" width="140" height="30" as="geometry" />
        </mxCell>
        <mxCell id="QgmlWZk6aCymqvTxZqvN-19" value="Báo cáo phân tích" style="rounded=0;whiteSpace=wrap;html=1;" vertex="1" parent="1">
          <mxGeometry x="280" y="450" width="140" height="30" as="geometry" />
        </mxCell>
        <mxCell id="QgmlWZk6aCymqvTxZqvN-22" value="Kho thuốc" style="rounded=0;whiteSpace=wrap;html=1;" vertex="1" parent="1">
          <mxGeometry x="280" y="310" width="140" height="30" as="geometry" />
        </mxCell>
        <mxCell id="QgmlWZk6aCymqvTxZqvN-23" style="edgeStyle=orthogonalEdgeStyle;rounded=0;orthogonalLoop=1;jettySize=auto;html=1;exitX=0;exitY=0.5;exitDx=0;exitDy=0;" edge="1" parent="1" source="QgmlWZk6aCymqvTxZqvN-25">
          <mxGeometry relative="1" as="geometry">
            <mxPoint x="420" y="395" as="targetPoint" />
          </mxGeometry>
        </mxCell>
        <mxCell id="QgmlWZk6aCymqvTxZqvN-25" value="Loại thuốc" style="rounded=0;whiteSpace=wrap;html=1;" vertex="1" parent="1">
          <mxGeometry x="540" y="380" width="140" height="30" as="geometry" />
        </mxCell>
        <mxCell id="QgmlWZk6aCymqvTxZqvN-34" value="Đơn thuốc" style="rounded=0;whiteSpace=wrap;html=1;" vertex="1" parent="1">
          <mxGeometry x="40" y="380" width="140" height="30" as="geometry" />
        </mxCell>
        <mxCell id="QgmlWZk6aCymqvTxZqvN-38" style="edgeStyle=orthogonalEdgeStyle;rounded=0;orthogonalLoop=1;jettySize=auto;html=1;exitX=0.5;exitY=0;exitDx=0;exitDy=0;entryX=0.5;entryY=1;entryDx=0;entryDy=0;" edge="1" parent="1" source="QgmlWZk6aCymqvTxZqvN-41" target="QgmlWZk6aCymqvTxZqvN-43">
          <mxGeometry relative="1" as="geometry" />
        </mxCell>
        <mxCell id="QgmlWZk6aCymqvTxZqvN-39" style="edgeStyle=orthogonalEdgeStyle;rounded=0;orthogonalLoop=1;jettySize=auto;html=1;exitX=0.5;exitY=1;exitDx=0;exitDy=0;entryX=0.5;entryY=0;entryDx=0;entryDy=0;" edge="1" parent="1" source="QgmlWZk6aCymqvTxZqvN-41" target="QgmlWZk6aCymqvTxZqvN-42">
          <mxGeometry relative="1" as="geometry" />
        </mxCell>
        <mxCell id="QgmlWZk6aCymqvTxZqvN-40" style="edgeStyle=orthogonalEdgeStyle;rounded=0;orthogonalLoop=1;jettySize=auto;html=1;exitX=1;exitY=0.5;exitDx=0;exitDy=0;entryX=0;entryY=0.5;entryDx=0;entryDy=0;" edge="1" parent="1" source="QgmlWZk6aCymqvTxZqvN-41" target="QgmlWZk6aCymqvTxZqvN-45">
          <mxGeometry relative="1" as="geometry" />
        </mxCell>
        <mxCell id="QgmlWZk6aCymqvTxZqvN-50" style="edgeStyle=orthogonalEdgeStyle;rounded=0;orthogonalLoop=1;jettySize=auto;html=1;exitX=0;exitY=1;exitDx=0;exitDy=0;entryX=1;entryY=0;entryDx=0;entryDy=0;" edge="1" parent="1" source="QgmlWZk6aCymqvTxZqvN-41" target="QgmlWZk6aCymqvTxZqvN-48">
          <mxGeometry relative="1" as="geometry">
            <Array as="points">
              <mxPoint x="280" y="630" />
              <mxPoint x="160" y="630" />
            </Array>
          </mxGeometry>
        </mxCell>
        <mxCell id="QgmlWZk6aCymqvTxZqvN-51" style="edgeStyle=orthogonalEdgeStyle;rounded=0;orthogonalLoop=1;jettySize=auto;html=1;exitX=0;exitY=0;exitDx=0;exitDy=0;entryX=1;entryY=1;entryDx=0;entryDy=0;" edge="1" parent="1" source="QgmlWZk6aCymqvTxZqvN-41" target="QgmlWZk6aCymqvTxZqvN-46">
          <mxGeometry relative="1" as="geometry">
            <Array as="points">
              <mxPoint x="280" y="580" />
              <mxPoint x="160" y="580" />
            </Array>
          </mxGeometry>
        </mxCell>
        <mxCell id="QgmlWZk6aCymqvTxZqvN-41" value="Đơn thuốc" style="rounded=0;whiteSpace=wrap;html=1;" vertex="1" parent="1">
          <mxGeometry x="280" y="590" width="140" height="30" as="geometry" />
        </mxCell>
        <mxCell id="QgmlWZk6aCymqvTxZqvN-42" value="Báo cáo phân tích" style="rounded=0;whiteSpace=wrap;html=1;" vertex="1" parent="1">
          <mxGeometry x="280" y="660" width="140" height="30" as="geometry" />
        </mxCell>
        <mxCell id="QgmlWZk6aCymqvTxZqvN-43" value="Thuốc" style="rounded=0;whiteSpace=wrap;html=1;" vertex="1" parent="1">
          <mxGeometry x="280" y="520" width="140" height="30" as="geometry" />
        </mxCell>
        <mxCell id="QgmlWZk6aCymqvTxZqvN-44" style="edgeStyle=orthogonalEdgeStyle;rounded=0;orthogonalLoop=1;jettySize=auto;html=1;exitX=0;exitY=0.5;exitDx=0;exitDy=0;" edge="1" parent="1" source="QgmlWZk6aCymqvTxZqvN-45">
          <mxGeometry relative="1" as="geometry">
            <mxPoint x="420" y="605" as="targetPoint" />
          </mxGeometry>
        </mxCell>
        <mxCell id="QgmlWZk6aCymqvTxZqvN-45" value="Loại thuốc" style="rounded=0;whiteSpace=wrap;html=1;" vertex="1" parent="1">
          <mxGeometry x="540" y="590" width="140" height="30" as="geometry" />
        </mxCell>
        <mxCell id="QgmlWZk6aCymqvTxZqvN-46" value="Dược sĩ" style="rounded=0;whiteSpace=wrap;html=1;" vertex="1" parent="1">
          <mxGeometry x="20" y="530" width="140" height="30" as="geometry" />
        </mxCell>
        <mxCell id="QgmlWZk6aCymqvTxZqvN-49" style="edgeStyle=orthogonalEdgeStyle;rounded=0;orthogonalLoop=1;jettySize=auto;html=1;exitX=0.5;exitY=0;exitDx=0;exitDy=0;entryX=0.5;entryY=1;entryDx=0;entryDy=0;" edge="1" parent="1" source="QgmlWZk6aCymqvTxZqvN-48" target="QgmlWZk6aCymqvTxZqvN-46">
          <mxGeometry relative="1" as="geometry" />
        </mxCell>
        <mxCell id="QgmlWZk6aCymqvTxZqvN-48" value="Bệnh nhân" style="rounded=0;whiteSpace=wrap;html=1;" vertex="1" parent="1">
          <mxGeometry x="20" y="660" width="140" height="30" as="geometry" />
        </mxCell>
      </root>
    </mxGraphModel>
  </diagram>
</mxfile>
